<mxfile host="app.diagrams.net" agent="Mozilla/5.0 (Windows NT 10.0; Win64; x64) AppleWebKit/537.36 (KHTML, like Gecko) Chrome/129.0.0.0 Safari/537.36" version="24.7.16">
  <diagram name="Pagina-1" id="rvxZABl97SzY-jT1b4KG">
    <mxGraphModel dx="1050" dy="1710" grid="1" gridSize="10" guides="1" tooltips="1" connect="1" arrows="1" fold="1" page="1" pageScale="1" pageWidth="827" pageHeight="1169" math="0" shadow="0">
      <root>
        <mxCell id="0" />
        <mxCell id="1" parent="0" />
        <mxCell id="uxEdKt9YuQo4ki1Q-XJZ-10" style="rounded=0;orthogonalLoop=1;jettySize=auto;html=1;fontFamily=Helvetica;fontSize=12;fontColor=default;strokeWidth=2;endArrow=none;endFill=0;" edge="1" parent="1" source="uxEdKt9YuQo4ki1Q-XJZ-1" target="uxEdKt9YuQo4ki1Q-XJZ-5">
          <mxGeometry relative="1" as="geometry" />
        </mxCell>
        <mxCell id="uxEdKt9YuQo4ki1Q-XJZ-106" value="(0,N)" style="edgeLabel;html=1;align=center;verticalAlign=middle;resizable=0;points=[];rounded=0;strokeColor=default;strokeWidth=2;fontFamily=Helvetica;fontSize=12;fontColor=default;labelBackgroundColor=default;fillColor=default;" vertex="1" connectable="0" parent="uxEdKt9YuQo4ki1Q-XJZ-10">
          <mxGeometry x="-0.1439" y="2" relative="1" as="geometry">
            <mxPoint as="offset" />
          </mxGeometry>
        </mxCell>
        <mxCell id="uxEdKt9YuQo4ki1Q-XJZ-12" style="edgeStyle=none;shape=connector;rounded=0;orthogonalLoop=1;jettySize=auto;html=1;strokeColor=default;strokeWidth=2;align=center;verticalAlign=middle;fontFamily=Helvetica;fontSize=12;fontColor=default;labelBackgroundColor=default;endArrow=none;endFill=0;" edge="1" parent="1" source="uxEdKt9YuQo4ki1Q-XJZ-1" target="uxEdKt9YuQo4ki1Q-XJZ-9">
          <mxGeometry relative="1" as="geometry" />
        </mxCell>
        <mxCell id="uxEdKt9YuQo4ki1Q-XJZ-108" value="(0,N)" style="edgeLabel;html=1;align=center;verticalAlign=middle;resizable=0;points=[];rounded=0;strokeColor=default;strokeWidth=2;fontFamily=Helvetica;fontSize=12;fontColor=default;labelBackgroundColor=default;fillColor=default;" vertex="1" connectable="0" parent="uxEdKt9YuQo4ki1Q-XJZ-12">
          <mxGeometry x="-0.1207" y="2" relative="1" as="geometry">
            <mxPoint y="1" as="offset" />
          </mxGeometry>
        </mxCell>
        <mxCell id="uxEdKt9YuQo4ki1Q-XJZ-77" style="edgeStyle=none;shape=connector;rounded=0;orthogonalLoop=1;jettySize=auto;html=1;strokeColor=default;strokeWidth=2;align=center;verticalAlign=middle;fontFamily=Helvetica;fontSize=12;fontColor=default;labelBackgroundColor=default;endArrow=none;endFill=0;" edge="1" parent="1" source="uxEdKt9YuQo4ki1Q-XJZ-1" target="uxEdKt9YuQo4ki1Q-XJZ-76">
          <mxGeometry relative="1" as="geometry" />
        </mxCell>
        <mxCell id="uxEdKt9YuQo4ki1Q-XJZ-112" value="(1,1)" style="edgeLabel;html=1;align=center;verticalAlign=middle;resizable=0;points=[];rounded=0;strokeColor=default;strokeWidth=2;fontFamily=Helvetica;fontSize=12;fontColor=default;labelBackgroundColor=default;fillColor=default;" vertex="1" connectable="0" parent="uxEdKt9YuQo4ki1Q-XJZ-77">
          <mxGeometry x="-0.03" relative="1" as="geometry">
            <mxPoint as="offset" />
          </mxGeometry>
        </mxCell>
        <mxCell id="uxEdKt9YuQo4ki1Q-XJZ-93" style="edgeStyle=none;shape=connector;rounded=0;orthogonalLoop=1;jettySize=auto;html=1;strokeColor=default;strokeWidth=2;align=center;verticalAlign=middle;fontFamily=Helvetica;fontSize=12;fontColor=default;labelBackgroundColor=default;endArrow=none;endFill=0;" edge="1" parent="1" source="uxEdKt9YuQo4ki1Q-XJZ-94" target="uxEdKt9YuQo4ki1Q-XJZ-6">
          <mxGeometry relative="1" as="geometry" />
        </mxCell>
        <mxCell id="uxEdKt9YuQo4ki1Q-XJZ-111" value="(0,M)" style="edgeLabel;html=1;align=center;verticalAlign=middle;resizable=0;points=[];rounded=0;strokeColor=default;strokeWidth=2;fontFamily=Helvetica;fontSize=12;fontColor=default;labelBackgroundColor=default;fillColor=default;" vertex="1" connectable="0" parent="uxEdKt9YuQo4ki1Q-XJZ-93">
          <mxGeometry x="0.0582" y="2" relative="1" as="geometry">
            <mxPoint x="-1" as="offset" />
          </mxGeometry>
        </mxCell>
        <mxCell id="uxEdKt9YuQo4ki1Q-XJZ-1" value="Gebruiker" style="rounded=0;whiteSpace=wrap;html=1;strokeWidth=2;" vertex="1" parent="1">
          <mxGeometry x="360" y="120" width="80" height="40" as="geometry" />
        </mxCell>
        <mxCell id="uxEdKt9YuQo4ki1Q-XJZ-15" style="edgeStyle=none;shape=connector;rounded=0;orthogonalLoop=1;jettySize=auto;html=1;strokeColor=default;strokeWidth=2;align=center;verticalAlign=middle;fontFamily=Helvetica;fontSize=12;fontColor=default;labelBackgroundColor=default;endArrow=none;endFill=0;" edge="1" parent="1" source="uxEdKt9YuQo4ki1Q-XJZ-4" target="uxEdKt9YuQo4ki1Q-XJZ-7">
          <mxGeometry relative="1" as="geometry" />
        </mxCell>
        <mxCell id="uxEdKt9YuQo4ki1Q-XJZ-4" value="foto" style="ellipse;whiteSpace=wrap;html=1;rounded=0;strokeColor=default;strokeWidth=2;align=center;verticalAlign=middle;fontFamily=Helvetica;fontSize=12;fontColor=default;fillColor=default;" vertex="1" parent="1">
          <mxGeometry x="1080" y="400" width="80" height="40" as="geometry" />
        </mxCell>
        <mxCell id="uxEdKt9YuQo4ki1Q-XJZ-14" style="edgeStyle=none;shape=connector;rounded=0;orthogonalLoop=1;jettySize=auto;html=1;strokeColor=default;strokeWidth=2;align=center;verticalAlign=middle;fontFamily=Helvetica;fontSize=12;fontColor=default;labelBackgroundColor=default;endArrow=none;endFill=0;" edge="1" parent="1" source="uxEdKt9YuQo4ki1Q-XJZ-5" target="uxEdKt9YuQo4ki1Q-XJZ-7">
          <mxGeometry relative="1" as="geometry" />
        </mxCell>
        <mxCell id="uxEdKt9YuQo4ki1Q-XJZ-107" value="(1,1)" style="edgeLabel;html=1;align=center;verticalAlign=middle;resizable=0;points=[];rounded=0;strokeColor=default;strokeWidth=2;fontFamily=Helvetica;fontSize=12;fontColor=default;labelBackgroundColor=default;fillColor=default;" vertex="1" connectable="0" parent="uxEdKt9YuQo4ki1Q-XJZ-14">
          <mxGeometry x="0.0844" y="1" relative="1" as="geometry">
            <mxPoint as="offset" />
          </mxGeometry>
        </mxCell>
        <mxCell id="uxEdKt9YuQo4ki1Q-XJZ-5" value="heeft" style="rhombus;whiteSpace=wrap;html=1;rounded=0;strokeColor=default;strokeWidth=2;align=center;verticalAlign=middle;fontFamily=Helvetica;fontSize=12;fontColor=default;fillColor=default;" vertex="1" parent="1">
          <mxGeometry x="520" y="80" width="80" height="40" as="geometry" />
        </mxCell>
        <mxCell id="uxEdKt9YuQo4ki1Q-XJZ-101" style="edgeStyle=none;shape=connector;rounded=0;orthogonalLoop=1;jettySize=auto;html=1;strokeColor=default;strokeWidth=2;align=center;verticalAlign=middle;fontFamily=Helvetica;fontSize=12;fontColor=default;labelBackgroundColor=default;endArrow=none;endFill=0;" edge="1" parent="1" source="uxEdKt9YuQo4ki1Q-XJZ-6" target="uxEdKt9YuQo4ki1Q-XJZ-98">
          <mxGeometry relative="1" as="geometry" />
        </mxCell>
        <mxCell id="uxEdKt9YuQo4ki1Q-XJZ-102" style="edgeStyle=none;shape=connector;rounded=0;orthogonalLoop=1;jettySize=auto;html=1;strokeColor=default;strokeWidth=2;align=center;verticalAlign=middle;fontFamily=Helvetica;fontSize=12;fontColor=default;labelBackgroundColor=default;endArrow=none;endFill=0;" edge="1" parent="1" source="uxEdKt9YuQo4ki1Q-XJZ-6" target="uxEdKt9YuQo4ki1Q-XJZ-97">
          <mxGeometry relative="1" as="geometry" />
        </mxCell>
        <mxCell id="uxEdKt9YuQo4ki1Q-XJZ-103" style="edgeStyle=none;shape=connector;rounded=0;orthogonalLoop=1;jettySize=auto;html=1;strokeColor=default;strokeWidth=2;align=center;verticalAlign=middle;fontFamily=Helvetica;fontSize=12;fontColor=default;labelBackgroundColor=default;endArrow=none;endFill=0;" edge="1" parent="1" source="uxEdKt9YuQo4ki1Q-XJZ-6" target="uxEdKt9YuQo4ki1Q-XJZ-96">
          <mxGeometry relative="1" as="geometry" />
        </mxCell>
        <mxCell id="uxEdKt9YuQo4ki1Q-XJZ-104" style="edgeStyle=none;shape=connector;rounded=0;orthogonalLoop=1;jettySize=auto;html=1;strokeColor=default;strokeWidth=2;align=center;verticalAlign=middle;fontFamily=Helvetica;fontSize=12;fontColor=default;labelBackgroundColor=default;endArrow=none;endFill=0;" edge="1" parent="1" source="uxEdKt9YuQo4ki1Q-XJZ-6" target="uxEdKt9YuQo4ki1Q-XJZ-100">
          <mxGeometry relative="1" as="geometry" />
        </mxCell>
        <mxCell id="uxEdKt9YuQo4ki1Q-XJZ-105" style="edgeStyle=none;shape=connector;rounded=0;orthogonalLoop=1;jettySize=auto;html=1;strokeColor=default;strokeWidth=2;align=center;verticalAlign=middle;fontFamily=Helvetica;fontSize=12;fontColor=default;labelBackgroundColor=default;endArrow=none;endFill=0;" edge="1" parent="1" source="uxEdKt9YuQo4ki1Q-XJZ-6" target="uxEdKt9YuQo4ki1Q-XJZ-99">
          <mxGeometry relative="1" as="geometry" />
        </mxCell>
        <mxCell id="uxEdKt9YuQo4ki1Q-XJZ-6" value="prestaties" style="rounded=0;whiteSpace=wrap;html=1;strokeColor=default;strokeWidth=2;align=center;verticalAlign=middle;fontFamily=Helvetica;fontSize=12;fontColor=default;fillColor=default;" vertex="1" parent="1">
          <mxGeometry x="680" y="360" width="80" height="40" as="geometry" />
        </mxCell>
        <mxCell id="uxEdKt9YuQo4ki1Q-XJZ-21" style="edgeStyle=none;shape=connector;rounded=0;orthogonalLoop=1;jettySize=auto;html=1;strokeColor=default;strokeWidth=2;align=center;verticalAlign=middle;fontFamily=Helvetica;fontSize=12;fontColor=default;labelBackgroundColor=default;endArrow=none;endFill=0;" edge="1" parent="1" source="uxEdKt9YuQo4ki1Q-XJZ-7" target="uxEdKt9YuQo4ki1Q-XJZ-17">
          <mxGeometry relative="1" as="geometry" />
        </mxCell>
        <mxCell id="uxEdKt9YuQo4ki1Q-XJZ-36" style="edgeStyle=none;shape=connector;rounded=0;orthogonalLoop=1;jettySize=auto;html=1;strokeColor=default;strokeWidth=2;align=center;verticalAlign=middle;fontFamily=Helvetica;fontSize=12;fontColor=default;labelBackgroundColor=default;endArrow=none;endFill=0;" edge="1" parent="1" source="uxEdKt9YuQo4ki1Q-XJZ-7" target="uxEdKt9YuQo4ki1Q-XJZ-26">
          <mxGeometry relative="1" as="geometry" />
        </mxCell>
        <mxCell id="uxEdKt9YuQo4ki1Q-XJZ-37" style="edgeStyle=none;shape=connector;rounded=0;orthogonalLoop=1;jettySize=auto;html=1;strokeColor=default;strokeWidth=2;align=center;verticalAlign=middle;fontFamily=Helvetica;fontSize=12;fontColor=default;labelBackgroundColor=default;endArrow=none;endFill=0;" edge="1" parent="1" source="uxEdKt9YuQo4ki1Q-XJZ-7" target="uxEdKt9YuQo4ki1Q-XJZ-25">
          <mxGeometry relative="1" as="geometry" />
        </mxCell>
        <mxCell id="uxEdKt9YuQo4ki1Q-XJZ-7" value="auto" style="rounded=0;whiteSpace=wrap;html=1;strokeColor=default;strokeWidth=2;align=center;verticalAlign=middle;fontFamily=Helvetica;fontSize=12;fontColor=default;fillColor=default;" vertex="1" parent="1">
          <mxGeometry x="680" y="120" width="80" height="40" as="geometry" />
        </mxCell>
        <mxCell id="uxEdKt9YuQo4ki1Q-XJZ-79" style="edgeStyle=none;shape=connector;rounded=0;orthogonalLoop=1;jettySize=auto;html=1;strokeColor=default;strokeWidth=2;align=center;verticalAlign=middle;fontFamily=Helvetica;fontSize=12;fontColor=default;labelBackgroundColor=default;endArrow=none;endFill=0;" edge="1" parent="1" source="uxEdKt9YuQo4ki1Q-XJZ-8" target="uxEdKt9YuQo4ki1Q-XJZ-75">
          <mxGeometry relative="1" as="geometry" />
        </mxCell>
        <mxCell id="uxEdKt9YuQo4ki1Q-XJZ-8" value="adres" style="rounded=0;whiteSpace=wrap;html=1;strokeColor=default;strokeWidth=2;align=center;verticalAlign=middle;fontFamily=Helvetica;fontSize=12;fontColor=default;fillColor=default;" vertex="1" parent="1">
          <mxGeometry x="360" y="360" width="80" height="40" as="geometry" />
        </mxCell>
        <mxCell id="uxEdKt9YuQo4ki1Q-XJZ-13" style="edgeStyle=none;shape=connector;rounded=0;orthogonalLoop=1;jettySize=auto;html=1;strokeColor=default;strokeWidth=2;align=center;verticalAlign=middle;fontFamily=Helvetica;fontSize=12;fontColor=default;labelBackgroundColor=default;endArrow=none;endFill=0;" edge="1" parent="1" source="uxEdKt9YuQo4ki1Q-XJZ-9" target="uxEdKt9YuQo4ki1Q-XJZ-7">
          <mxGeometry relative="1" as="geometry" />
        </mxCell>
        <mxCell id="uxEdKt9YuQo4ki1Q-XJZ-109" value="(0,M)" style="edgeLabel;html=1;align=center;verticalAlign=middle;resizable=0;points=[];rounded=0;strokeColor=default;strokeWidth=2;fontFamily=Helvetica;fontSize=12;fontColor=default;labelBackgroundColor=default;fillColor=default;" vertex="1" connectable="0" parent="uxEdKt9YuQo4ki1Q-XJZ-13">
          <mxGeometry x="0.1318" relative="1" as="geometry">
            <mxPoint as="offset" />
          </mxGeometry>
        </mxCell>
        <mxCell id="uxEdKt9YuQo4ki1Q-XJZ-9" value="wil" style="rhombus;whiteSpace=wrap;html=1;rounded=0;strokeColor=default;strokeWidth=2;align=center;verticalAlign=middle;fontFamily=Helvetica;fontSize=12;fontColor=default;fillColor=default;" vertex="1" parent="1">
          <mxGeometry x="520" y="160" width="80" height="40" as="geometry" />
        </mxCell>
        <mxCell id="uxEdKt9YuQo4ki1Q-XJZ-16" value="motorinhoud" style="ellipse;whiteSpace=wrap;html=1;rounded=0;strokeColor=default;strokeWidth=2;align=center;verticalAlign=middle;fontFamily=Helvetica;fontSize=12;fontColor=default;labelBackgroundColor=default;fillColor=default;" vertex="1" parent="1">
          <mxGeometry x="920" y="360" width="80" height="40" as="geometry" />
        </mxCell>
        <mxCell id="uxEdKt9YuQo4ki1Q-XJZ-17" value="chassis nr." style="ellipse;whiteSpace=wrap;html=1;rounded=0;strokeColor=default;strokeWidth=2;align=center;verticalAlign=middle;fontFamily=Helvetica;fontSize=12;fontColor=default;labelBackgroundColor=default;fillColor=default;" vertex="1" parent="1">
          <mxGeometry x="920" y="320" width="80" height="40" as="geometry" />
        </mxCell>
        <mxCell id="uxEdKt9YuQo4ki1Q-XJZ-24" style="edgeStyle=none;shape=connector;rounded=0;orthogonalLoop=1;jettySize=auto;html=1;strokeColor=default;strokeWidth=2;align=center;verticalAlign=middle;fontFamily=Helvetica;fontSize=12;fontColor=default;labelBackgroundColor=default;endArrow=none;endFill=0;" edge="1" parent="1" source="uxEdKt9YuQo4ki1Q-XJZ-18" target="uxEdKt9YuQo4ki1Q-XJZ-7">
          <mxGeometry relative="1" as="geometry" />
        </mxCell>
        <mxCell id="uxEdKt9YuQo4ki1Q-XJZ-18" value="type versnelling" style="ellipse;whiteSpace=wrap;html=1;rounded=0;strokeColor=default;strokeWidth=2;align=center;verticalAlign=middle;fontFamily=Helvetica;fontSize=12;fontColor=default;labelBackgroundColor=default;fillColor=default;" vertex="1" parent="1">
          <mxGeometry x="920" y="400" width="80" height="40" as="geometry" />
        </mxCell>
        <mxCell id="uxEdKt9YuQo4ki1Q-XJZ-23" style="edgeStyle=none;shape=connector;rounded=0;orthogonalLoop=1;jettySize=auto;html=1;strokeColor=default;strokeWidth=2;align=center;verticalAlign=middle;fontFamily=Helvetica;fontSize=12;fontColor=default;labelBackgroundColor=default;endArrow=none;endFill=0;" edge="1" parent="1" source="uxEdKt9YuQo4ki1Q-XJZ-19" target="uxEdKt9YuQo4ki1Q-XJZ-7">
          <mxGeometry relative="1" as="geometry" />
        </mxCell>
        <mxCell id="uxEdKt9YuQo4ki1Q-XJZ-19" value="kleur" style="ellipse;whiteSpace=wrap;html=1;rounded=0;strokeColor=default;strokeWidth=2;align=center;verticalAlign=middle;fontFamily=Helvetica;fontSize=12;fontColor=default;labelBackgroundColor=default;fillColor=default;" vertex="1" parent="1">
          <mxGeometry x="920" y="240" width="80" height="40" as="geometry" />
        </mxCell>
        <mxCell id="uxEdKt9YuQo4ki1Q-XJZ-22" style="edgeStyle=none;shape=connector;rounded=0;orthogonalLoop=1;jettySize=auto;html=1;strokeColor=default;strokeWidth=2;align=center;verticalAlign=middle;fontFamily=Helvetica;fontSize=12;fontColor=default;labelBackgroundColor=default;endArrow=none;endFill=0;" edge="1" parent="1" source="uxEdKt9YuQo4ki1Q-XJZ-20" target="uxEdKt9YuQo4ki1Q-XJZ-7">
          <mxGeometry relative="1" as="geometry" />
        </mxCell>
        <mxCell id="uxEdKt9YuQo4ki1Q-XJZ-20" value="nummerplaat" style="ellipse;whiteSpace=wrap;html=1;rounded=0;strokeColor=default;strokeWidth=2;align=center;verticalAlign=middle;fontFamily=Helvetica;fontSize=12;fontColor=default;labelBackgroundColor=default;fillColor=default;" vertex="1" parent="1">
          <mxGeometry x="920" y="280" width="80" height="40" as="geometry" />
        </mxCell>
        <mxCell id="uxEdKt9YuQo4ki1Q-XJZ-25" value="aantal deuren" style="ellipse;whiteSpace=wrap;html=1;rounded=0;strokeColor=default;strokeWidth=2;align=center;verticalAlign=middle;fontFamily=Helvetica;fontSize=12;fontColor=default;labelBackgroundColor=default;fillColor=default;" vertex="1" parent="1">
          <mxGeometry x="920" width="80" height="40" as="geometry" />
        </mxCell>
        <mxCell id="uxEdKt9YuQo4ki1Q-XJZ-26" value="zitplaatsen" style="ellipse;whiteSpace=wrap;html=1;rounded=0;strokeColor=default;strokeWidth=2;align=center;verticalAlign=middle;fontFamily=Helvetica;fontSize=12;fontColor=default;labelBackgroundColor=default;fillColor=default;" vertex="1" parent="1">
          <mxGeometry x="920" y="40" width="80" height="40" as="geometry" />
        </mxCell>
        <mxCell id="uxEdKt9YuQo4ki1Q-XJZ-32" style="edgeStyle=none;shape=connector;rounded=0;orthogonalLoop=1;jettySize=auto;html=1;strokeColor=default;strokeWidth=2;align=center;verticalAlign=middle;fontFamily=Helvetica;fontSize=12;fontColor=default;labelBackgroundColor=default;endArrow=none;endFill=0;" edge="1" parent="1" source="uxEdKt9YuQo4ki1Q-XJZ-27" target="uxEdKt9YuQo4ki1Q-XJZ-7">
          <mxGeometry relative="1" as="geometry" />
        </mxCell>
        <mxCell id="uxEdKt9YuQo4ki1Q-XJZ-27" value="model" style="ellipse;whiteSpace=wrap;html=1;rounded=0;strokeColor=default;strokeWidth=2;align=center;verticalAlign=middle;fontFamily=Helvetica;fontSize=12;fontColor=default;labelBackgroundColor=default;fillColor=default;" vertex="1" parent="1">
          <mxGeometry x="920" y="80" width="80" height="40" as="geometry" />
        </mxCell>
        <mxCell id="uxEdKt9YuQo4ki1Q-XJZ-33" style="edgeStyle=none;shape=connector;rounded=0;orthogonalLoop=1;jettySize=auto;html=1;strokeColor=default;strokeWidth=2;align=center;verticalAlign=middle;fontFamily=Helvetica;fontSize=12;fontColor=default;labelBackgroundColor=default;endArrow=none;endFill=0;" edge="1" parent="1" source="uxEdKt9YuQo4ki1Q-XJZ-28" target="uxEdKt9YuQo4ki1Q-XJZ-7">
          <mxGeometry relative="1" as="geometry" />
        </mxCell>
        <mxCell id="uxEdKt9YuQo4ki1Q-XJZ-28" value="merk" style="ellipse;whiteSpace=wrap;html=1;rounded=0;strokeColor=default;strokeWidth=2;align=center;verticalAlign=middle;fontFamily=Helvetica;fontSize=12;fontColor=default;labelBackgroundColor=default;fillColor=default;" vertex="1" parent="1">
          <mxGeometry x="920" y="120" width="80" height="40" as="geometry" />
        </mxCell>
        <mxCell id="uxEdKt9YuQo4ki1Q-XJZ-34" style="edgeStyle=none;shape=connector;rounded=0;orthogonalLoop=1;jettySize=auto;html=1;strokeColor=default;strokeWidth=2;align=center;verticalAlign=middle;fontFamily=Helvetica;fontSize=12;fontColor=default;labelBackgroundColor=default;endArrow=none;endFill=0;" edge="1" parent="1" source="uxEdKt9YuQo4ki1Q-XJZ-29" target="uxEdKt9YuQo4ki1Q-XJZ-7">
          <mxGeometry relative="1" as="geometry" />
        </mxCell>
        <mxCell id="uxEdKt9YuQo4ki1Q-XJZ-29" value="vermogen" style="ellipse;whiteSpace=wrap;html=1;rounded=0;strokeColor=default;strokeWidth=2;align=center;verticalAlign=middle;fontFamily=Helvetica;fontSize=12;fontColor=default;labelBackgroundColor=default;fillColor=default;" vertex="1" parent="1">
          <mxGeometry x="920" y="160" width="80" height="40" as="geometry" />
        </mxCell>
        <mxCell id="uxEdKt9YuQo4ki1Q-XJZ-35" style="edgeStyle=none;shape=connector;rounded=0;orthogonalLoop=1;jettySize=auto;html=1;strokeColor=default;strokeWidth=2;align=center;verticalAlign=middle;fontFamily=Helvetica;fontSize=12;fontColor=default;labelBackgroundColor=default;endArrow=none;endFill=0;" edge="1" parent="1" source="uxEdKt9YuQo4ki1Q-XJZ-30" target="uxEdKt9YuQo4ki1Q-XJZ-7">
          <mxGeometry relative="1" as="geometry" />
        </mxCell>
        <mxCell id="uxEdKt9YuQo4ki1Q-XJZ-30" value="aandrijving" style="ellipse;whiteSpace=wrap;html=1;rounded=0;strokeColor=default;strokeWidth=2;align=center;verticalAlign=middle;fontFamily=Helvetica;fontSize=12;fontColor=default;labelBackgroundColor=default;fillColor=default;" vertex="1" parent="1">
          <mxGeometry x="920" y="200" width="80" height="40" as="geometry" />
        </mxCell>
        <mxCell id="uxEdKt9YuQo4ki1Q-XJZ-31" value="aantal versnellingen" style="ellipse;whiteSpace=wrap;html=1;rounded=0;strokeColor=default;strokeWidth=2;align=center;verticalAlign=middle;fontFamily=Helvetica;fontSize=12;fontColor=default;labelBackgroundColor=default;fillColor=default;" vertex="1" parent="1">
          <mxGeometry x="920" y="440" width="80" height="40" as="geometry" />
        </mxCell>
        <mxCell id="uxEdKt9YuQo4ki1Q-XJZ-38" value="type rem vooraan" style="ellipse;whiteSpace=wrap;html=1;rounded=0;strokeColor=default;strokeWidth=2;align=center;verticalAlign=middle;fontFamily=Helvetica;fontSize=12;fontColor=default;labelBackgroundColor=default;fillColor=default;" vertex="1" parent="1">
          <mxGeometry x="1000" width="80" height="40" as="geometry" />
        </mxCell>
        <mxCell id="uxEdKt9YuQo4ki1Q-XJZ-39" value="type rem achteraan" style="ellipse;whiteSpace=wrap;html=1;rounded=0;strokeColor=default;strokeWidth=2;align=center;verticalAlign=middle;fontFamily=Helvetica;fontSize=12;fontColor=default;labelBackgroundColor=default;fillColor=default;" vertex="1" parent="1">
          <mxGeometry x="1000" y="40" width="80" height="40" as="geometry" />
        </mxCell>
        <mxCell id="uxEdKt9YuQo4ki1Q-XJZ-40" value="lege massa" style="ellipse;whiteSpace=wrap;html=1;rounded=0;strokeColor=default;strokeWidth=2;align=center;verticalAlign=middle;fontFamily=Helvetica;fontSize=12;fontColor=default;labelBackgroundColor=default;fillColor=default;" vertex="1" parent="1">
          <mxGeometry x="1000" y="240" width="80" height="40" as="geometry" />
        </mxCell>
        <mxCell id="uxEdKt9YuQo4ki1Q-XJZ-41" value="bouwjaar" style="ellipse;whiteSpace=wrap;html=1;rounded=0;strokeColor=default;strokeWidth=2;align=center;verticalAlign=middle;fontFamily=Helvetica;fontSize=12;fontColor=default;labelBackgroundColor=default;fillColor=default;" vertex="1" parent="1">
          <mxGeometry x="1000" y="80" width="80" height="40" as="geometry" />
        </mxCell>
        <mxCell id="uxEdKt9YuQo4ki1Q-XJZ-42" value="verbruik" style="ellipse;whiteSpace=wrap;html=1;rounded=0;strokeColor=default;strokeWidth=2;align=center;verticalAlign=middle;fontFamily=Helvetica;fontSize=12;fontColor=default;labelBackgroundColor=default;fillColor=default;" vertex="1" parent="1">
          <mxGeometry x="1000" y="120" width="80" height="40" as="geometry" />
        </mxCell>
        <mxCell id="uxEdKt9YuQo4ki1Q-XJZ-43" value="inhoud benzinetank" style="ellipse;whiteSpace=wrap;html=1;rounded=0;strokeColor=default;strokeWidth=2;align=center;verticalAlign=middle;fontFamily=Helvetica;fontSize=12;fontColor=default;labelBackgroundColor=default;fillColor=default;" vertex="1" parent="1">
          <mxGeometry x="1000" y="160" width="80" height="40" as="geometry" />
        </mxCell>
        <mxCell id="uxEdKt9YuQo4ki1Q-XJZ-44" value="kilometers" style="ellipse;whiteSpace=wrap;html=1;rounded=0;strokeColor=default;strokeWidth=2;align=center;verticalAlign=middle;fontFamily=Helvetica;fontSize=12;fontColor=default;labelBackgroundColor=default;fillColor=default;" vertex="1" parent="1">
          <mxGeometry x="1000" y="200" width="80" height="40" as="geometry" />
        </mxCell>
        <mxCell id="uxEdKt9YuQo4ki1Q-XJZ-45" value="mtm" style="ellipse;whiteSpace=wrap;html=1;rounded=0;strokeColor=default;strokeWidth=2;align=center;verticalAlign=middle;fontFamily=Helvetica;fontSize=12;fontColor=default;labelBackgroundColor=default;fillColor=default;" vertex="1" parent="1">
          <mxGeometry x="1000" y="280" width="80" height="40" as="geometry" />
        </mxCell>
        <mxCell id="uxEdKt9YuQo4ki1Q-XJZ-46" value="opties" style="ellipse;whiteSpace=wrap;html=1;rounded=0;strokeColor=default;strokeWidth=2;align=center;verticalAlign=middle;fontFamily=Helvetica;fontSize=12;fontColor=default;labelBackgroundColor=default;fillColor=default;" vertex="1" parent="1">
          <mxGeometry x="1000" y="320" width="80" height="40" as="geometry" />
        </mxCell>
        <mxCell id="uxEdKt9YuQo4ki1Q-XJZ-47" value="Te koop?" style="ellipse;whiteSpace=wrap;html=1;rounded=0;strokeColor=default;strokeWidth=2;align=center;verticalAlign=middle;fontFamily=Helvetica;fontSize=12;fontColor=default;labelBackgroundColor=default;fillColor=default;" vertex="1" parent="1">
          <mxGeometry x="1000" y="360" width="80" height="40" as="geometry" />
        </mxCell>
        <mxCell id="uxEdKt9YuQo4ki1Q-XJZ-48" value="soort banden" style="ellipse;whiteSpace=wrap;html=1;rounded=0;strokeColor=default;strokeWidth=2;align=center;verticalAlign=middle;fontFamily=Helvetica;fontSize=12;fontColor=default;labelBackgroundColor=default;fillColor=default;" vertex="1" parent="1">
          <mxGeometry x="1080" y="240" width="80" height="40" as="geometry" />
        </mxCell>
        <mxCell id="uxEdKt9YuQo4ki1Q-XJZ-49" value="aantal banden" style="ellipse;whiteSpace=wrap;html=1;rounded=0;strokeColor=default;strokeWidth=2;align=center;verticalAlign=middle;fontFamily=Helvetica;fontSize=12;fontColor=default;labelBackgroundColor=default;fillColor=default;" vertex="1" parent="1">
          <mxGeometry x="1080" y="200" width="80" height="40" as="geometry" />
        </mxCell>
        <mxCell id="uxEdKt9YuQo4ki1Q-XJZ-50" value="gekeurd" style="ellipse;whiteSpace=wrap;html=1;rounded=0;strokeColor=default;strokeWidth=2;align=center;verticalAlign=middle;fontFamily=Helvetica;fontSize=12;fontColor=default;labelBackgroundColor=default;fillColor=default;" vertex="1" parent="1">
          <mxGeometry x="1000" y="400" width="80" height="40" as="geometry" />
        </mxCell>
        <mxCell id="uxEdKt9YuQo4ki1Q-XJZ-51" value="#cylinders" style="ellipse;whiteSpace=wrap;html=1;rounded=0;strokeColor=default;strokeWidth=2;align=center;verticalAlign=middle;fontFamily=Helvetica;fontSize=12;fontColor=default;labelBackgroundColor=default;fillColor=default;" vertex="1" parent="1">
          <mxGeometry x="1000" y="440" width="80" height="40" as="geometry" />
        </mxCell>
        <mxCell id="uxEdKt9YuQo4ki1Q-XJZ-52" value="trekhaak" style="ellipse;whiteSpace=wrap;html=1;rounded=0;strokeColor=default;strokeWidth=2;align=center;verticalAlign=middle;fontFamily=Helvetica;fontSize=12;fontColor=default;labelBackgroundColor=default;fillColor=default;" vertex="1" parent="1">
          <mxGeometry x="1080" y="360" width="80" height="40" as="geometry" />
        </mxCell>
        <mxCell id="uxEdKt9YuQo4ki1Q-XJZ-53" value="brandstof" style="ellipse;whiteSpace=wrap;html=1;rounded=0;strokeColor=default;strokeWidth=2;align=center;verticalAlign=middle;fontFamily=Helvetica;fontSize=12;fontColor=default;labelBackgroundColor=default;fillColor=default;" vertex="1" parent="1">
          <mxGeometry x="1080" y="320" width="80" height="40" as="geometry" />
        </mxCell>
        <mxCell id="uxEdKt9YuQo4ki1Q-XJZ-54" value="topsnelheid" style="ellipse;whiteSpace=wrap;html=1;rounded=0;strokeColor=default;strokeWidth=2;align=center;verticalAlign=middle;fontFamily=Helvetica;fontSize=12;fontColor=default;labelBackgroundColor=default;fillColor=default;" vertex="1" parent="1">
          <mxGeometry x="1080" y="280" width="80" height="40" as="geometry" />
        </mxCell>
        <mxCell id="uxEdKt9YuQo4ki1Q-XJZ-55" value="turbo" style="ellipse;whiteSpace=wrap;html=1;rounded=0;strokeColor=default;strokeWidth=2;align=center;verticalAlign=middle;fontFamily=Helvetica;fontSize=12;fontColor=default;labelBackgroundColor=default;fillColor=default;" vertex="1" parent="1">
          <mxGeometry x="1080" width="80" height="40" as="geometry" />
        </mxCell>
        <mxCell id="uxEdKt9YuQo4ki1Q-XJZ-56" value="lengte" style="ellipse;whiteSpace=wrap;html=1;rounded=0;strokeColor=default;strokeWidth=2;align=center;verticalAlign=middle;fontFamily=Helvetica;fontSize=12;fontColor=default;labelBackgroundColor=default;fillColor=default;" vertex="1" parent="1">
          <mxGeometry x="1080" y="40" width="80" height="40" as="geometry" />
        </mxCell>
        <mxCell id="uxEdKt9YuQo4ki1Q-XJZ-57" value="homologatie" style="ellipse;whiteSpace=wrap;html=1;rounded=0;strokeColor=default;strokeWidth=2;align=center;verticalAlign=middle;fontFamily=Helvetica;fontSize=12;fontColor=default;labelBackgroundColor=default;fillColor=default;" vertex="1" parent="1">
          <mxGeometry x="1080" y="160" width="80" height="40" as="geometry" />
        </mxCell>
        <mxCell id="uxEdKt9YuQo4ki1Q-XJZ-58" value="hoogte" style="ellipse;whiteSpace=wrap;html=1;rounded=0;strokeColor=default;strokeWidth=2;align=center;verticalAlign=middle;fontFamily=Helvetica;fontSize=12;fontColor=default;labelBackgroundColor=default;fillColor=default;" vertex="1" parent="1">
          <mxGeometry x="1080" y="120" width="80" height="40" as="geometry" />
        </mxCell>
        <mxCell id="uxEdKt9YuQo4ki1Q-XJZ-59" value="breedte" style="ellipse;whiteSpace=wrap;html=1;rounded=0;strokeColor=default;strokeWidth=2;align=center;verticalAlign=middle;fontFamily=Helvetica;fontSize=12;fontColor=default;labelBackgroundColor=default;fillColor=default;" vertex="1" parent="1">
          <mxGeometry x="1080" y="80" width="80" height="40" as="geometry" />
        </mxCell>
        <mxCell id="uxEdKt9YuQo4ki1Q-XJZ-61" value="datum eerste inschrijving" style="ellipse;whiteSpace=wrap;html=1;rounded=0;strokeColor=default;strokeWidth=2;align=center;verticalAlign=middle;fontFamily=Helvetica;fontSize=12;fontColor=default;labelBackgroundColor=default;fillColor=default;" vertex="1" parent="1">
          <mxGeometry x="1080" y="440" width="80" height="40" as="geometry" />
        </mxCell>
        <mxCell id="uxEdKt9YuQo4ki1Q-XJZ-85" style="edgeStyle=none;shape=connector;rounded=0;orthogonalLoop=1;jettySize=auto;html=1;strokeColor=default;strokeWidth=2;align=center;verticalAlign=middle;fontFamily=Helvetica;fontSize=12;fontColor=default;labelBackgroundColor=default;endArrow=none;endFill=0;" edge="1" parent="1" source="uxEdKt9YuQo4ki1Q-XJZ-62" target="uxEdKt9YuQo4ki1Q-XJZ-1">
          <mxGeometry relative="1" as="geometry" />
        </mxCell>
        <mxCell id="uxEdKt9YuQo4ki1Q-XJZ-62" value="naam" style="ellipse;whiteSpace=wrap;html=1;rounded=0;strokeColor=default;strokeWidth=2;align=center;verticalAlign=middle;fontFamily=Helvetica;fontSize=12;fontColor=default;labelBackgroundColor=default;fillColor=default;" vertex="1" parent="1">
          <mxGeometry x="240" y="40" width="80" height="40" as="geometry" />
        </mxCell>
        <mxCell id="uxEdKt9YuQo4ki1Q-XJZ-86" style="edgeStyle=none;shape=connector;rounded=0;orthogonalLoop=1;jettySize=auto;html=1;strokeColor=default;strokeWidth=2;align=center;verticalAlign=middle;fontFamily=Helvetica;fontSize=12;fontColor=default;labelBackgroundColor=default;endArrow=none;endFill=0;" edge="1" parent="1" source="uxEdKt9YuQo4ki1Q-XJZ-63" target="uxEdKt9YuQo4ki1Q-XJZ-1">
          <mxGeometry relative="1" as="geometry" />
        </mxCell>
        <mxCell id="uxEdKt9YuQo4ki1Q-XJZ-63" value="voornaam" style="ellipse;whiteSpace=wrap;html=1;rounded=0;strokeColor=default;strokeWidth=2;align=center;verticalAlign=middle;fontFamily=Helvetica;fontSize=12;fontColor=default;labelBackgroundColor=default;fillColor=default;" vertex="1" parent="1">
          <mxGeometry x="240" y="80" width="80" height="40" as="geometry" />
        </mxCell>
        <mxCell id="uxEdKt9YuQo4ki1Q-XJZ-91" style="edgeStyle=none;shape=connector;rounded=0;orthogonalLoop=1;jettySize=auto;html=1;strokeColor=default;strokeWidth=2;align=center;verticalAlign=middle;fontFamily=Helvetica;fontSize=12;fontColor=default;labelBackgroundColor=default;endArrow=none;endFill=0;" edge="1" parent="1" source="uxEdKt9YuQo4ki1Q-XJZ-64" target="uxEdKt9YuQo4ki1Q-XJZ-1">
          <mxGeometry relative="1" as="geometry" />
        </mxCell>
        <mxCell id="uxEdKt9YuQo4ki1Q-XJZ-64" value="gebruikersnaam" style="ellipse;whiteSpace=wrap;html=1;rounded=0;strokeColor=default;strokeWidth=2;align=center;verticalAlign=middle;fontFamily=Helvetica;fontSize=12;fontColor=default;labelBackgroundColor=default;fillColor=default;" vertex="1" parent="1">
          <mxGeometry x="240" y="280" width="80" height="40" as="geometry" />
        </mxCell>
        <mxCell id="uxEdKt9YuQo4ki1Q-XJZ-87" style="edgeStyle=none;shape=connector;rounded=0;orthogonalLoop=1;jettySize=auto;html=1;strokeColor=default;strokeWidth=2;align=center;verticalAlign=middle;fontFamily=Helvetica;fontSize=12;fontColor=default;labelBackgroundColor=default;endArrow=none;endFill=0;" edge="1" parent="1" source="uxEdKt9YuQo4ki1Q-XJZ-65" target="uxEdKt9YuQo4ki1Q-XJZ-1">
          <mxGeometry relative="1" as="geometry" />
        </mxCell>
        <mxCell id="uxEdKt9YuQo4ki1Q-XJZ-65" value="geboortedatum" style="ellipse;whiteSpace=wrap;html=1;rounded=0;strokeColor=default;strokeWidth=2;align=center;verticalAlign=middle;fontFamily=Helvetica;fontSize=12;fontColor=default;labelBackgroundColor=default;fillColor=default;" vertex="1" parent="1">
          <mxGeometry x="240" y="120" width="80" height="40" as="geometry" />
        </mxCell>
        <mxCell id="uxEdKt9YuQo4ki1Q-XJZ-88" style="edgeStyle=none;shape=connector;rounded=0;orthogonalLoop=1;jettySize=auto;html=1;strokeColor=default;strokeWidth=2;align=center;verticalAlign=middle;fontFamily=Helvetica;fontSize=12;fontColor=default;labelBackgroundColor=default;endArrow=none;endFill=0;" edge="1" parent="1" source="uxEdKt9YuQo4ki1Q-XJZ-66" target="uxEdKt9YuQo4ki1Q-XJZ-1">
          <mxGeometry relative="1" as="geometry" />
        </mxCell>
        <mxCell id="uxEdKt9YuQo4ki1Q-XJZ-66" value="mail adres" style="ellipse;whiteSpace=wrap;html=1;rounded=0;strokeColor=default;strokeWidth=2;align=center;verticalAlign=middle;fontFamily=Helvetica;fontSize=12;fontColor=default;labelBackgroundColor=default;fillColor=default;" vertex="1" parent="1">
          <mxGeometry x="240" y="160" width="80" height="40" as="geometry" />
        </mxCell>
        <mxCell id="uxEdKt9YuQo4ki1Q-XJZ-89" style="edgeStyle=none;shape=connector;rounded=0;orthogonalLoop=1;jettySize=auto;html=1;strokeColor=default;strokeWidth=2;align=center;verticalAlign=middle;fontFamily=Helvetica;fontSize=12;fontColor=default;labelBackgroundColor=default;endArrow=none;endFill=0;" edge="1" parent="1" source="uxEdKt9YuQo4ki1Q-XJZ-67" target="uxEdKt9YuQo4ki1Q-XJZ-1">
          <mxGeometry relative="1" as="geometry" />
        </mxCell>
        <mxCell id="uxEdKt9YuQo4ki1Q-XJZ-67" value="telefoon nr" style="ellipse;whiteSpace=wrap;html=1;rounded=0;strokeColor=default;strokeWidth=2;align=center;verticalAlign=middle;fontFamily=Helvetica;fontSize=12;fontColor=default;labelBackgroundColor=default;fillColor=default;" vertex="1" parent="1">
          <mxGeometry x="240" y="200" width="80" height="40" as="geometry" />
        </mxCell>
        <mxCell id="uxEdKt9YuQo4ki1Q-XJZ-90" style="edgeStyle=none;shape=connector;rounded=0;orthogonalLoop=1;jettySize=auto;html=1;strokeColor=default;strokeWidth=2;align=center;verticalAlign=middle;fontFamily=Helvetica;fontSize=12;fontColor=default;labelBackgroundColor=default;endArrow=none;endFill=0;" edge="1" parent="1" source="uxEdKt9YuQo4ki1Q-XJZ-68" target="uxEdKt9YuQo4ki1Q-XJZ-1">
          <mxGeometry relative="1" as="geometry" />
        </mxCell>
        <mxCell id="uxEdKt9YuQo4ki1Q-XJZ-68" value="nationaliteit" style="ellipse;whiteSpace=wrap;html=1;rounded=0;strokeColor=default;strokeWidth=2;align=center;verticalAlign=middle;fontFamily=Helvetica;fontSize=12;fontColor=default;labelBackgroundColor=default;fillColor=default;" vertex="1" parent="1">
          <mxGeometry x="240" y="240" width="80" height="40" as="geometry" />
        </mxCell>
        <mxCell id="uxEdKt9YuQo4ki1Q-XJZ-81" style="edgeStyle=none;shape=connector;rounded=0;orthogonalLoop=1;jettySize=auto;html=1;strokeColor=default;strokeWidth=2;align=center;verticalAlign=middle;fontFamily=Helvetica;fontSize=12;fontColor=default;labelBackgroundColor=default;endArrow=none;endFill=0;" edge="1" parent="1" source="uxEdKt9YuQo4ki1Q-XJZ-70" target="uxEdKt9YuQo4ki1Q-XJZ-8">
          <mxGeometry relative="1" as="geometry" />
        </mxCell>
        <mxCell id="uxEdKt9YuQo4ki1Q-XJZ-70" value="gemeente" style="ellipse;whiteSpace=wrap;html=1;rounded=0;strokeColor=default;strokeWidth=2;align=center;verticalAlign=middle;fontFamily=Helvetica;fontSize=12;fontColor=default;labelBackgroundColor=default;fillColor=default;" vertex="1" parent="1">
          <mxGeometry x="240" y="440" width="80" height="40" as="geometry" />
        </mxCell>
        <mxCell id="uxEdKt9YuQo4ki1Q-XJZ-71" value="huisnummer" style="ellipse;whiteSpace=wrap;html=1;rounded=0;strokeColor=default;strokeWidth=2;align=center;verticalAlign=middle;fontFamily=Helvetica;fontSize=12;fontColor=default;labelBackgroundColor=default;fillColor=default;" vertex="1" parent="1">
          <mxGeometry x="240" y="520" width="80" height="40" as="geometry" />
        </mxCell>
        <mxCell id="uxEdKt9YuQo4ki1Q-XJZ-82" style="edgeStyle=none;shape=connector;rounded=0;orthogonalLoop=1;jettySize=auto;html=1;strokeColor=default;strokeWidth=2;align=center;verticalAlign=middle;fontFamily=Helvetica;fontSize=12;fontColor=default;labelBackgroundColor=default;endArrow=none;endFill=0;" edge="1" parent="1" source="uxEdKt9YuQo4ki1Q-XJZ-72" target="uxEdKt9YuQo4ki1Q-XJZ-8">
          <mxGeometry relative="1" as="geometry" />
        </mxCell>
        <mxCell id="uxEdKt9YuQo4ki1Q-XJZ-72" value="straat" style="ellipse;whiteSpace=wrap;html=1;rounded=0;strokeColor=default;strokeWidth=2;align=center;verticalAlign=middle;fontFamily=Helvetica;fontSize=12;fontColor=default;labelBackgroundColor=default;fillColor=default;" vertex="1" parent="1">
          <mxGeometry x="240" y="480" width="80" height="40" as="geometry" />
        </mxCell>
        <mxCell id="uxEdKt9YuQo4ki1Q-XJZ-80" style="edgeStyle=none;shape=connector;rounded=0;orthogonalLoop=1;jettySize=auto;html=1;strokeColor=default;strokeWidth=2;align=center;verticalAlign=middle;fontFamily=Helvetica;fontSize=12;fontColor=default;labelBackgroundColor=default;endArrow=none;endFill=0;" edge="1" parent="1" source="uxEdKt9YuQo4ki1Q-XJZ-73" target="uxEdKt9YuQo4ki1Q-XJZ-8">
          <mxGeometry relative="1" as="geometry" />
        </mxCell>
        <mxCell id="uxEdKt9YuQo4ki1Q-XJZ-73" value="postcode" style="ellipse;whiteSpace=wrap;html=1;rounded=0;strokeColor=default;strokeWidth=2;align=center;verticalAlign=middle;fontFamily=Helvetica;fontSize=12;fontColor=default;labelBackgroundColor=default;fillColor=default;" vertex="1" parent="1">
          <mxGeometry x="240" y="400" width="80" height="40" as="geometry" />
        </mxCell>
        <mxCell id="uxEdKt9YuQo4ki1Q-XJZ-84" style="edgeStyle=none;shape=connector;rounded=0;orthogonalLoop=1;jettySize=auto;html=1;strokeColor=default;strokeWidth=2;align=center;verticalAlign=middle;fontFamily=Helvetica;fontSize=12;fontColor=default;labelBackgroundColor=default;endArrow=none;endFill=0;" edge="1" parent="1" source="uxEdKt9YuQo4ki1Q-XJZ-74" target="uxEdKt9YuQo4ki1Q-XJZ-8">
          <mxGeometry relative="1" as="geometry" />
        </mxCell>
        <mxCell id="uxEdKt9YuQo4ki1Q-XJZ-74" value="extra" style="ellipse;whiteSpace=wrap;html=1;rounded=0;strokeColor=default;strokeWidth=2;align=center;verticalAlign=middle;fontFamily=Helvetica;fontSize=12;fontColor=default;labelBackgroundColor=default;fillColor=default;" vertex="1" parent="1">
          <mxGeometry x="240" y="560" width="80" height="40" as="geometry" />
        </mxCell>
        <mxCell id="uxEdKt9YuQo4ki1Q-XJZ-75" value="land" style="ellipse;whiteSpace=wrap;html=1;rounded=0;strokeColor=default;strokeWidth=2;align=center;verticalAlign=middle;fontFamily=Helvetica;fontSize=12;fontColor=default;labelBackgroundColor=default;fillColor=default;" vertex="1" parent="1">
          <mxGeometry x="240" y="360" width="80" height="40" as="geometry" />
        </mxCell>
        <mxCell id="uxEdKt9YuQo4ki1Q-XJZ-78" style="edgeStyle=none;shape=connector;rounded=0;orthogonalLoop=1;jettySize=auto;html=1;strokeColor=default;strokeWidth=2;align=center;verticalAlign=middle;fontFamily=Helvetica;fontSize=12;fontColor=default;labelBackgroundColor=default;endArrow=none;endFill=0;" edge="1" parent="1" source="uxEdKt9YuQo4ki1Q-XJZ-76" target="uxEdKt9YuQo4ki1Q-XJZ-8">
          <mxGeometry relative="1" as="geometry" />
        </mxCell>
        <mxCell id="uxEdKt9YuQo4ki1Q-XJZ-113" value="(1,N)" style="edgeLabel;html=1;align=center;verticalAlign=middle;resizable=0;points=[];rounded=0;strokeColor=default;strokeWidth=2;fontFamily=Helvetica;fontSize=12;fontColor=default;labelBackgroundColor=default;fillColor=default;" vertex="1" connectable="0" parent="uxEdKt9YuQo4ki1Q-XJZ-78">
          <mxGeometry x="-0.005" y="-1" relative="1" as="geometry">
            <mxPoint as="offset" />
          </mxGeometry>
        </mxCell>
        <mxCell id="uxEdKt9YuQo4ki1Q-XJZ-76" value="woont" style="rhombus;whiteSpace=wrap;html=1;rounded=0;strokeColor=default;strokeWidth=2;align=center;verticalAlign=middle;fontFamily=Helvetica;fontSize=12;fontColor=default;fillColor=default;" vertex="1" parent="1">
          <mxGeometry x="360" y="240" width="80" height="40" as="geometry" />
        </mxCell>
        <mxCell id="uxEdKt9YuQo4ki1Q-XJZ-83" style="edgeStyle=none;shape=connector;rounded=0;orthogonalLoop=1;jettySize=auto;html=1;strokeColor=default;strokeWidth=2;align=center;verticalAlign=middle;fontFamily=Helvetica;fontSize=12;fontColor=default;labelBackgroundColor=default;endArrow=none;endFill=0;" edge="1" parent="1" source="uxEdKt9YuQo4ki1Q-XJZ-71" target="uxEdKt9YuQo4ki1Q-XJZ-8">
          <mxGeometry relative="1" as="geometry" />
        </mxCell>
        <mxCell id="uxEdKt9YuQo4ki1Q-XJZ-92" style="edgeStyle=none;shape=connector;rounded=0;orthogonalLoop=1;jettySize=auto;html=1;exitX=0.5;exitY=0;exitDx=0;exitDy=0;strokeColor=default;strokeWidth=2;align=center;verticalAlign=middle;fontFamily=Helvetica;fontSize=12;fontColor=default;labelBackgroundColor=default;endArrow=none;endFill=0;" edge="1" parent="1" source="uxEdKt9YuQo4ki1Q-XJZ-6" target="uxEdKt9YuQo4ki1Q-XJZ-6">
          <mxGeometry relative="1" as="geometry" />
        </mxCell>
        <mxCell id="uxEdKt9YuQo4ki1Q-XJZ-95" value="" style="edgeStyle=none;shape=connector;rounded=0;orthogonalLoop=1;jettySize=auto;html=1;strokeColor=default;strokeWidth=2;align=center;verticalAlign=middle;fontFamily=Helvetica;fontSize=12;fontColor=default;labelBackgroundColor=default;endArrow=none;endFill=0;" edge="1" parent="1" source="uxEdKt9YuQo4ki1Q-XJZ-1" target="uxEdKt9YuQo4ki1Q-XJZ-94">
          <mxGeometry relative="1" as="geometry">
            <mxPoint x="427" y="160" as="sourcePoint" />
            <mxPoint x="693" y="360" as="targetPoint" />
          </mxGeometry>
        </mxCell>
        <mxCell id="uxEdKt9YuQo4ki1Q-XJZ-110" value="(0,N)" style="edgeLabel;html=1;align=center;verticalAlign=middle;resizable=0;points=[];rounded=0;strokeColor=default;strokeWidth=2;fontFamily=Helvetica;fontSize=12;fontColor=default;labelBackgroundColor=default;fillColor=default;" vertex="1" connectable="0" parent="uxEdKt9YuQo4ki1Q-XJZ-95">
          <mxGeometry x="-0.1073" y="1" relative="1" as="geometry">
            <mxPoint y="1" as="offset" />
          </mxGeometry>
        </mxCell>
        <mxCell id="uxEdKt9YuQo4ki1Q-XJZ-94" value="heeft" style="rhombus;whiteSpace=wrap;html=1;rounded=0;strokeColor=default;strokeWidth=2;align=center;verticalAlign=middle;fontFamily=Helvetica;fontSize=12;fontColor=default;labelBackgroundColor=default;fillColor=default;" vertex="1" parent="1">
          <mxGeometry x="520" y="240" width="80" height="40" as="geometry" />
        </mxCell>
        <mxCell id="uxEdKt9YuQo4ki1Q-XJZ-96" value="Titel" style="ellipse;whiteSpace=wrap;html=1;rounded=0;strokeColor=default;strokeWidth=2;align=center;verticalAlign=middle;fontFamily=Helvetica;fontSize=12;fontColor=default;labelBackgroundColor=default;fillColor=default;" vertex="1" parent="1">
          <mxGeometry x="680" y="440" width="80" height="40" as="geometry" />
        </mxCell>
        <mxCell id="uxEdKt9YuQo4ki1Q-XJZ-97" value="beschrijving" style="ellipse;whiteSpace=wrap;html=1;rounded=0;strokeColor=default;strokeWidth=2;align=center;verticalAlign=middle;fontFamily=Helvetica;fontSize=12;fontColor=default;labelBackgroundColor=default;fillColor=default;" vertex="1" parent="1">
          <mxGeometry x="560" y="440" width="80" height="40" as="geometry" />
        </mxCell>
        <mxCell id="uxEdKt9YuQo4ki1Q-XJZ-98" value="icoon" style="ellipse;whiteSpace=wrap;html=1;rounded=0;strokeColor=default;strokeWidth=2;align=center;verticalAlign=middle;fontFamily=Helvetica;fontSize=12;fontColor=default;labelBackgroundColor=default;fillColor=default;" vertex="1" parent="1">
          <mxGeometry x="560" y="360" width="80" height="40" as="geometry" />
        </mxCell>
        <mxCell id="uxEdKt9YuQo4ki1Q-XJZ-99" value="voorwaarde" style="ellipse;whiteSpace=wrap;html=1;rounded=0;strokeColor=default;strokeWidth=2;align=center;verticalAlign=middle;fontFamily=Helvetica;fontSize=12;fontColor=default;labelBackgroundColor=default;fillColor=default;" vertex="1" parent="1">
          <mxGeometry x="800" y="440" width="80" height="40" as="geometry" />
        </mxCell>
        <mxCell id="uxEdKt9YuQo4ki1Q-XJZ-100" value="score" style="ellipse;whiteSpace=wrap;html=1;rounded=0;strokeColor=default;strokeWidth=2;align=center;verticalAlign=middle;fontFamily=Helvetica;fontSize=12;fontColor=default;labelBackgroundColor=default;fillColor=default;" vertex="1" parent="1">
          <mxGeometry x="800" y="360" width="80" height="40" as="geometry" />
        </mxCell>
      </root>
    </mxGraphModel>
  </diagram>
</mxfile>
